<svg xmlns="http://www.w3.org/2000/svg" xmlns:xlink="http://www.w3.org/1999/xlink" width="301.25" height="66" viewBox="0 0 301.25 66">
  <defs>
    <clipPath id="clip-path">
      <rect id="Rectangle_3754" data-name="Rectangle 3754" width="301.25" height="66"/>
    </clipPath>
  </defs>
  <g id="Group_19755" data-name="Group 19755" transform="translate(-92 -65.5)">
    <g id="eralogoyatay" transform="translate(92 65.5)">
      <g id="Group_19746" data-name="Group 19746" clip-path="url(#clip-path)">
        <path id="Path_70028" data-name="Path 70028" d="M378.258,57.451H381.5V24.47h-3.237Zm-27.213-9.24c0,7.086,4.737,9.8,9.24,9.8,4.551,0,9.287-2.669,9.287-9.8V24.47H358.265v2.913h8.07V48.211c0,5.114-3.094,6.8-6.007,6.8-3,0-6.05-1.829-6.05-6.9V46.9H351.04v1.313Zm-23.651,9.24h19.425V54.543H330.627V42.295h12.53V39.387h-12.53V27.378h15.342V24.465H327.395Zm-24.3,0h18.527V54.543H306.327V24.47h-3.233Zm-37.536-16.7a13.426,13.426,0,1,1,26.84,0c0,8.07-6.007,14.263-13.422,14.263-7.459,0-13.418-6.193-13.418-14.263m-3.376,0a16.8,16.8,0,1,0,33.592,0,16.8,16.8,0,1,0-33.592,0m-25.336,16.7h3.237V41.684h5.587L255.1,57.451h3.8l-10.51-17.314,9.851-15.672h-3.71l-8.867,14.311h-5.587V24.47h-3.237V57.451ZM378.377,16.93h3.008v3.93h-3.008ZM188.929,39.392h-3.467V31.46h2.693c4.011,0,4.923,1.461,4.923,3.92,0,2.6-1.595,4.011-4.149,4.011m7.387,4.474c3.242-1.733,4.88-5.52,4.88-8.987,0-4.746-2.325-8.07-6.021-9.488-1.413-.549-3.013-.774-6.341-.774H177.479V57.226h7.979V46.239H189.2l5.787,10.987h8.9l-6.341-11.4a17.737,17.737,0,0,0-1.227-1.963m-34.752.363h9.942V37.391h-9.942V31.46h11.947V24.618H153.58V57.226h21.306V50.388H161.564ZM210.55,44l1.877-6.341c.592-2.053,1.318-5.611,1.318-5.611.086,0,.821,3.557,1.413,5.611L216.987,44Zm7.435-19.386h-8.394l-7.974,23.46,5.09,9.149,1.972-6.843h10.176l2.006,6.843h8.208Z" transform="translate(-80.246 -8.846)" fill="#1d1d1b"/>
      </g>
      <g id="Group_19747" data-name="Group 19747" clip-path="url(#clip-path)">
        <path id="Path_70029" data-name="Path 70029" d="M52.247,41.378V8.3s-14.712.22-25.021-6.551l0,.01,0-.01C16.912,8.521,2.2,8.3,2.2,8.3V41.373C3.9,58.754,27.221,65.625,27.221,65.625h.01s23.307-6.866,25.016-24.247" transform="translate(-1.15 -0.914)" fill="#fff"/>
      </g>
      <g id="Group_19748" data-name="Group 19748" clip-path="url(#clip-path)">
        <path id="Path_70030" data-name="Path 70030" d="M52.508,44.2V14.467s-12.916.134-22.251-6l0,.01,0-.01C20.916,14.6,8,14.467,8,14.467V44.192C9.547,59.93,30.251,65.932,30.251,65.932h.01s20.7-6,22.247-21.736" transform="translate(-4.18 -4.426)" fill="#1d1d1b"/>
      </g>
      <g id="Group_19749" data-name="Group 19749" clip-path="url(#clip-path)">
        <path id="Path_70031" data-name="Path 70031" d="M50.238,40.215C48.557,57,26.076,63.87,26.076,63.87h-.01S3.586,57.009,1.905,40.215V8.266s14.024.411,24.161-6.131l0,.01,0-.01C36.214,8.676,50.238,8.266,50.238,8.266Zm1.91.444V6.484S36.925,7.2,26.076,0l0,.01,0-.01C15.333,7.134,0,6.484,0,6.484V40.659C1.81,58.5,26.067,66,26.067,66h.01S50.333,58.5,52.148,40.659" fill="#1d1d1b"/>
      </g>
      <g id="Group_19750" data-name="Group 19750" clip-path="url(#clip-path)">
        <path id="Path_70032" data-name="Path 70032" d="M52.318,114.671a1.265,1.265,0,0,0,.912.372.915.915,0,0,0,.969-.917.83.83,0,0,0-.75-.817l.673-.793v-.32H52.438v.435h.821a2.342,2.342,0,0,0,.244-.01v.01a2.026,2.026,0,0,0-.2.21l-.506.606.115.258h.191c.32,0,.592.138.592.435a.451.451,0,0,1-.5.42.946.946,0,0,1-.626-.286Zm-1.91.325h1.686v-.435h-.6V112.2h-.439l-.692.673.3.315.22-.21a.576.576,0,0,0,.119-.158h.01s0,.1,0,.191v1.552h-.6Zm-1.432-.415c-.377,0-.487-.435-.487-.984s.11-.974.487-.974.487.43.487.974-.11.984-.487.984m0,.463c.754,0,1-.645,1-1.452s-.248-1.442-1-1.442-1,.635-1,1.442.244,1.452,1,1.452M45.724,115h1.829v-.435H46.263c.01-.53,1.246-.683,1.246-1.581a.827.827,0,0,0-.9-.826,1.022,1.022,0,0,0-.912.559l.372.253a.635.635,0,0,1,.5-.329.386.386,0,0,1,.42.392c0,.554-1.289.716-1.289,1.724,0,.076.014.153.024.244" transform="translate(-23.878 -58.598)" fill="#fff"/>
      </g>
      <g id="Group_19751" data-name="Group 19751" clip-path="url(#clip-path)">
        <path id="Path_70033" data-name="Path 70033" d="M42.9,35.277a15.835,15.835,0,1,0,8.958,8.958L46.586,49.5a9.5,9.5,0,1,1-8.958-8.958Z" transform="translate(-11.118 -17.862)" fill="#fd0"/>
      </g>
      <g id="Group_19752" data-name="Group 19752" clip-path="url(#clip-path)">
        <path id="Path_70034" data-name="Path 70034" d="M49.205,49.927a3.167,3.167,0,0,0,0,4.479l2.239,2.239,11.2-11.2a3.167,3.167,0,0,0,0-4.479L60.4,38.73Z" transform="translate(-25.225 -20.236)" fill="#fd0"/>
      </g>
    </g>
  </g>
</svg>
